<?xml version="1.0" standalone="no"?>
<!DOCTYPE svg PUBLIC "-//W3C//DTD SVG 20010904//EN"
 "http://www.w3.org/TR/2001/REC-SVG-20010904/DTD/svg10.dtd">
<svg version="1.0" xmlns="http://www.w3.org/2000/svg"
 width="579.000000pt" height="579.000000pt" viewBox="0 0 579.000000 579.000000"
 preserveAspectRatio="xMidYMid meet">

<g transform="translate(0.000000,579.000000) scale(0.100000,-0.100000)"
fill="#000000" stroke="none">
<path d="M2902 5065 c-18 -36 -32 -68 -32 -70 0 -3 22 -5 48 -5 45 0 51 3 111
64 l63 63 -48 7 c-104 14 -106 13 -142 -59z"/>
<path d="M2910 4942 c-14 -2 -48 -10 -77 -18 l-52 -15 -6 -57 c-3 -31 -8 -68
-11 -80 -3 -13 -1 -22 3 -20 93 47 161 59 182 34 20 -24 -6 -48 -74 -70 -104
-32 -156 -109 -135 -199 23 -103 116 -150 191 -96 27 19 29 19 29 2 0 -16 10
-18 86 -20 84 -1 86 0 79 20 -4 12 -10 103 -14 202 -10 243 -31 290 -136 312
-22 5 -51 7 -65 5z m40 -376 c-7 -20 -16 -27 -33 -24 -35 5 -33 40 5 77 l33
32 3 -28 c2 -16 -2 -42 -8 -57z"/>
<path d="M2454 4901 c-83 -38 -134 -133 -134 -251 0 -120 53 -215 143 -259 56
-27 103 -27 158 2 41 22 44 27 51 73 3 27 6 72 7 99 0 43 -2 47 -12 31 -23
-38 -60 -66 -87 -66 -86 0 -133 148 -69 216 26 28 46 30 96 9 l36 -15 -7 82
c-4 45 -8 83 -9 84 -1 1 -31 4 -67 8 -52 5 -73 2 -106 -13z"/>
<path d="M3265 4871 c-3 -2 -5 -33 -5 -68 0 -77 -22 -186 -61 -311 -17 -51
-28 -96 -25 -101 3 -5 23 -11 43 -15 21 -3 61 -17 90 -30 l52 -25 5 32 c3 18
8 64 11 102 7 78 31 183 48 203 17 21 51 10 61 -21 12 -33 -3 -111 -44 -240
-20 -61 -25 -89 -17 -92 7 -2 35 -10 62 -18 28 -8 66 -22 86 -30 l37 -16 7 77
c4 42 16 124 27 182 35 184 17 256 -75 294 -42 18 -49 18 -91 4 -45 -15 -46
-15 -46 6 0 17 -14 25 -80 47 -44 14 -83 23 -85 20z"/>
<path d="M3886 4814 c-26 -25 -30 -63 -12 -100 45 -96 166 -89 166 9 0 77
-105 140 -154 91z"/>
<path d="M1983 4771 c-140 -65 -159 -335 -33 -462 78 -79 159 -82 273 -10 52
34 53 35 41 163 l-7 67 -28 -39 c-32 -43 -75 -70 -113 -70 -32 0 -85 44 -71
59 6 6 53 28 105 49 l95 39 -1 37 c-2 51 -51 126 -100 153 -59 33 -111 37
-161 14z m81 -147 c23 -22 20 -39 -9 -52 -37 -17 -45 -15 -45 12 0 21 22 56
35 56 2 0 11 -7 19 -16z"/>
<path d="M1465 4702 c-27 -26 -72 -65 -99 -88 l-49 -41 57 -152 c31 -84 72
-184 91 -222 39 -76 32 -95 -8 -26 -30 51 -224 300 -237 305 -5 2 -42 -27 -82
-65 -40 -38 -86 -78 -101 -90 l-29 -22 56 -84 c63 -95 130 -233 201 -415 l48
-123 51 49 c28 26 62 55 75 64 l23 17 -19 28 c-11 15 -41 69 -68 118 -27 50
-75 129 -107 177 -35 53 -54 89 -47 93 6 4 12 5 13 4 2 -2 61 -83 131 -179 70
-96 132 -179 136 -184 5 -6 35 15 71 50 35 33 73 66 86 74 l23 15 -69 170
c-38 94 -81 197 -96 229 -14 33 -24 61 -21 64 3 3 7 3 9 1 8 -10 163 -280 193
-339 19 -35 36 -66 38 -68 2 -3 40 29 83 69 l79 73 -52 61 c-58 69 -171 238
-259 388 -31 53 -60 97 -64 97 -4 0 -29 -22 -57 -48z"/>
<path d="M3787 4562 c-18 -71 -45 -144 -84 -221 -32 -64 -59 -119 -61 -123 -2
-4 16 -17 40 -29 24 -12 64 -37 91 -55 26 -19 49 -34 51 -34 2 0 7 21 11 47
12 80 64 224 115 319 l49 91 -35 17 c-20 9 -62 34 -93 55 l-58 38 -26 -105z"/>
<path d="M4073 4384 c-109 -54 -161 -207 -118 -351 26 -87 86 -153 154 -170
25 -6 51 17 111 99 l20 26 -40 -5 c-34 -5 -43 -1 -68 24 -41 41 -50 98 -23
152 47 91 108 92 152 2 l27 -54 14 24 c8 13 27 45 41 70 l26 46 -47 59 c-88
109 -149 128 -249 78z"/>
<path d="M545 4263 c-96 -52 -382 -331 -455 -444 -52 -81 -58 -105 -33 -130
19 -20 20 -19 109 88 109 132 304 329 402 408 45 36 72 64 70 74 -4 22 -56 25
-93 4z"/>
<path d="M609 4184 c-153 -129 -509 -499 -509 -529 0 -6 8 -19 18 -28 18 -16
23 -12 106 89 103 123 328 351 415 419 62 49 70 62 49 83 -17 17 -19 17 -79
-34z"/>
<path d="M2515 4211 c-289 -52 -549 -161 -783 -328 -106 -76 -261 -217 -249
-229 4 -4 31 -9 61 -12 55 -4 55 -4 118 52 211 189 498 334 783 395 296 64
619 48 908 -46 139 -44 353 -152 477 -241 112 -79 312 -277 390 -385 l55 -76
53 -1 c36 0 52 4 52 13 0 36 -138 213 -261 335 -267 265 -565 428 -931 508
-109 24 -148 27 -348 30 -184 3 -243 0 -325 -15z"/>
<path d="M653 4112 c-93 -81 -465 -462 -482 -495 -13 -24 -12 -29 4 -47 10
-11 21 -17 26 -14 5 3 44 49 86 102 93 116 299 325 401 406 73 59 82 72 60 94
-18 18 -23 16 -95 -46z"/>
<path d="M669 4006 c-133 -119 -427 -421 -442 -453 -13 -28 19 -66 217 -262
137 -136 148 -144 163 -128 11 11 16 30 15 55 -2 33 6 50 57 118 92 123 174
208 282 289 78 59 107 75 134 75 42 0 65 9 65 24 0 14 -333 361 -359 376 -14
7 -40 -11 -132 -94z"/>
<path d="M4436 4041 l-47 -48 31 -13 c43 -18 120 -95 120 -120 0 -37 -28 -32
-101 19 -96 68 -144 67 -193 -6 -56 -81 -24 -206 63 -250 33 -17 40 -24 28
-29 -15 -5 -13 -11 12 -43 16 -20 42 -58 59 -84 l30 -48 21 43 c12 24 55 86
97 138 118 149 136 197 108 290 -13 45 -29 68 -90 128 -40 39 -77 72 -82 72
-4 0 -29 -22 -56 -49z m10 -285 c19 -15 19 -15 -1 -31 -45 -35 -53 -37 -70
-12 -8 13 -13 32 -9 41 8 20 53 21 80 2z"/>
<path d="M5142 4028 c-7 -7 -12 -15 -12 -19 0 -4 59 -65 131 -136 138 -134
297 -317 368 -421 44 -65 50 -69 69 -50 49 49 -65 224 -298 460 -155 156 -224
200 -258 166z"/>
<path d="M5074 3969 c-19 -21 -19 -21 64 -97 46 -41 135 -132 199 -201 101
-109 145 -164 251 -309 23 -32 25 -33 43 -16 10 9 19 22 19 28 0 39 -512 616
-547 616 -5 0 -18 -9 -29 -21z"/>
<path d="M5018 3919 c-10 -5 -18 -15 -18 -20 0 -6 67 -77 148 -157 140 -139
280 -301 350 -404 40 -59 49 -64 72 -43 15 13 17 22 10 36 -41 75 -510 600
-536 599 -5 0 -17 -5 -26 -11z"/>
<path d="M4898 3813 c-210 -192 -323 -299 -326 -310 -5 -18 34 -34 63 -27 20
5 35 -2 73 -32 138 -112 290 -284 366 -416 21 -36 26 -54 21 -80 -8 -44 15
-69 43 -46 128 111 378 342 380 351 3 14 -134 190 -246 317 -112 126 -285 300
-299 300 -6 0 -40 -26 -75 -57z"/>
<path d="M2185 3509 c-165 -7 -338 -36 -470 -81 -128 -43 -355 -163 -355 -187
0 -8 28 -13 143 -25 20 -3 49 10 100 44 131 86 225 123 357 138 145 18 244
-14 313 -101 78 -98 97 -162 55 -191 -33 -24 -38 -20 -38 27 0 50 -19 73 -67
83 -44 9 -133 -13 -160 -38 -31 -29 -16 -38 72 -38 89 0 105 -9 82 -44 -14
-21 -27 -26 -87 -32 -39 -4 -73 -11 -76 -16 -4 -6 69 -9 197 -6 211 3 249 10
249 46 0 9 -33 58 -73 107 -76 95 -111 154 -105 183 4 22 77 48 172 61 111 16
364 13 480 -4 158 -24 135 -1 -34 34 -188 39 -445 52 -755 40z"/>
<path d="M810 3407 c-70 -24 -47 -68 65 -125 l70 -36 142 0 c79 -1 143 2 143
6 0 4 -22 17 -49 29 -56 24 -99 63 -81 74 6 4 62 11 123 16 199 16 322 31 331
40 16 14 -702 10 -744 -4z"/>
<path d="M900 3167 c-47 -13 -103 -33 -125 -45 l-40 -23 35 8 c19 4 80 8 135
7 90 0 107 -3 167 -31 100 -46 150 -102 215 -241 30 -64 66 -142 81 -172 37
-79 121 -159 212 -202 109 -52 316 -104 485 -123 147 -16 240 -24 243 -20 2 2
-32 11 -75 20 -359 77 -526 145 -652 262 -116 106 -143 159 -156 302 l-7 74
73 -6 c41 -4 155 -15 254 -26 99 -11 243 -25 320 -31 245 -21 335 -46 398
-113 l29 -31 26 35 c48 63 109 116 166 144 49 24 67 27 144 26 105 -2 168 -28
240 -100 101 -101 159 -261 192 -531 11 -91 27 -186 36 -211 19 -60 73 -123
121 -142 51 -20 143 -30 173 -19 24 9 23 9 -12 21 -42 14 -124 97 -135 138 -4
15 -8 70 -8 121 0 90 1 95 28 118 23 19 39 24 85 24 117 -1 138 -11 213 -93
147 -161 272 -202 539 -177 256 23 265 35 33 43 -173 5 -257 21 -297 55 -23
21 -46 73 -46 106 0 34 34 42 235 56 205 14 409 41 498 66 49 15 -6 19 -235
19 -722 0 -894 42 -1131 274 -206 201 -230 270 -90 259 94 -7 166 -49 238
-138 71 -87 112 -113 221 -139 109 -27 409 -73 453 -69 36 3 36 3 -59 63 -141
88 -481 255 -595 293 -188 61 -273 75 -455 75 -159 1 -173 -1 -395 -47 l-230
-48 -215 5 c-229 6 -555 30 -630 48 -67 16 -77 28 -43 55 l28 22 -40 11 c-107
28 -234 44 -390 47 -155 4 -178 2 -255 -19z"/>
<path d="M3755 3164 c-128 -10 -175 -16 -175 -25 0 -5 16 -9 35 -9 57 0 262
-47 380 -87 61 -20 180 -72 265 -115 147 -75 152 -77 120 -42 -60 61 -204 150
-334 204 -27 11 -47 23 -44 26 9 8 246 -52 337 -85 155 -58 350 -167 494 -278
32 -25 60 -43 63 -40 9 9 -88 117 -148 167 -68 54 -343 195 -448 229 -36 11
-97 27 -136 35 -72 15 -316 27 -409 20z"/>
<path d="M800 3013 c0 -5 18 -17 40 -27 77 -37 144 -130 189 -262 22 -67 51
-254 52 -347 2 -114 -1 -111 119 -119 58 -5 272 -21 475 -38 204 -16 408 -32
455 -35 47 -3 110 -7 140 -10 92 -8 16 11 -157 39 -207 33 -574 91 -743 116
-74 11 -140 26 -146 33 -7 6 -26 67 -43 135 -59 235 -96 317 -180 405 -65 69
-201 143 -201 110z"/>
<path d="M627 2940 c-25 -28 -53 -71 -62 -98 -22 -59 -31 -250 -16 -319 48
-226 249 -371 401 -290 44 23 73 59 34 42 -11 -5 -38 -10 -62 -13 -134 -13
-242 115 -263 311 -16 153 26 267 114 313 15 8 25 19 22 24 -11 17 -79 11
-114 -11 -18 -11 -36 -18 -39 -15 -3 3 9 28 26 56 41 66 18 66 -41 0z"/>
<path d="M2675 2861 c-100 -57 -174 -172 -194 -301 -41 -252 48 -472 231 -571
61 -33 67 -34 173 -34 100 0 115 2 160 27 54 29 132 95 122 104 -3 3 -30 -6
-61 -20 -153 -72 -294 -48 -406 70 -67 71 -92 129 -98 227 -12 201 83 385 216
417 29 7 64 10 77 7 14 -2 25 0 25 5 0 15 -49 28 -106 28 -57 0 -95 -14 -151
-57 -52 -38 -39 -10 28 62 67 71 62 81 -16 36z"/>
<path d="M4992 2595 c9 -19 8 -38 0 -76 -16 -70 -15 -154 4 -219 30 -108 33
-97 -37 -129 -115 -51 -263 -89 -454 -116 -55 -8 -104 -15 -108 -15 -5 0 -6
-3 -4 -7 3 -5 79 -5 169 -2 229 10 412 52 496 115 40 31 41 54 5 137 -23 52
-27 80 -31 177 -3 79 -9 121 -19 137 -20 31 -35 29 -21 -2z"/>
<path d="M990 2023 c0 -30 33 -163 44 -182 11 -17 86 -14 92 4 6 15 -19 139
-36 183 -8 18 -17 22 -55 22 -42 0 -45 -2 -45 -27z"/>
<path d="M1094 1749 c-48 -34 -167 -89 -190 -89 -12 0 -44 9 -70 20 -26 11
-54 18 -63 15 -17 -6 -115 -119 -141 -161 -14 -24 -14 -27 30 -63 l44 -39 58
30 c81 43 167 44 235 2 98 -61 139 -187 94 -289 -12 -26 -21 -56 -21 -65 0
-18 68 -80 88 -80 13 0 141 138 154 167 9 18 5 31 -17 69 -23 40 -27 54 -22
96 4 28 20 81 38 118 30 66 32 104 4 80 -21 -18 -66 -127 -72 -178 -4 -37 0
-59 17 -96 14 -32 19 -57 15 -75 -8 -33 -44 -91 -56 -91 -5 0 3 18 18 41 l26
40 -23 70 c-33 102 -25 139 68 321 4 8 -114 127 -156 157 l-28 20 -30 -20z"/>
<path d="M4426 1701 c-9 -14 123 -98 172 -111 35 -9 53 -8 93 5 60 20 89 12
140 -41 41 -43 29 -45 -19 -3 -33 30 -38 31 -86 24 -116 -18 -176 -2 -275 73
l-54 41 -46 -32 c-25 -17 -69 -53 -98 -80 l-51 -48 24 -56 c14 -31 32 -85 40
-121 l15 -65 -30 -49 c-17 -27 -31 -56 -31 -63 0 -19 140 -185 156 -185 7 0
30 14 51 32 21 18 40 33 41 34 2 1 -6 32 -19 68 -50 150 20 284 167 317 45 10
60 9 105 -6 30 -9 66 -25 80 -36 15 -10 32 -19 39 -19 17 0 90 59 90 73 0 15
-107 153 -137 177 -24 19 -25 19 -69 -1 -25 -10 -57 -19 -70 -19 -25 0 -114
42 -169 79 -32 23 -51 26 -59 12z"/>
<path d="M3720 1672 c0 -4 -24 -32 -54 -63 l-53 -57 74 -32 c85 -38 221 -120
305 -186 31 -24 60 -44 65 -44 4 0 19 16 33 36 13 20 37 46 52 57 15 12 28 24
28 27 0 4 -31 19 -70 34 -78 31 -212 112 -306 186 -64 51 -74 56 -74 42z"/>
<path d="M1869 1624 c-34 -37 -207 -150 -305 -198 l-82 -42 64 -67 63 -66 60
52 c64 55 235 162 319 200 29 12 52 25 52 29 0 10 -122 118 -135 118 -6 0 -22
-12 -36 -26z"/>
<path d="M510 1399 c-98 -112 -105 -132 -61 -171 23 -20 41 -28 61 -26 15 1
35 -4 44 -11 15 -13 15 -16 0 -39 -16 -25 -16 -26 27 -61 24 -20 79 -69 123
-109 76 -71 79 -73 98 -56 27 25 53 7 53 -36 0 -25 8 -39 35 -61 19 -16 40
-29 46 -29 15 0 194 187 194 203 0 16 -62 77 -78 77 -7 0 -31 -12 -53 -27 -61
-40 -148 -44 -216 -9 -64 32 -119 96 -138 160 -17 56 -12 100 16 160 11 22 19
45 19 52 0 13 -65 74 -80 74 -5 0 -45 -41 -90 -91z"/>
<path d="M1895 1401 c-18 -36 -122 -140 -180 -182 l-43 -31 76 -51 75 -51 16
24 c48 73 129 150 157 150 19 0 36 -28 29 -49 -6 -19 -108 -113 -152 -141 -14
-9 -15 -12 -5 -17 8 -3 43 -25 78 -48 l64 -44 39 52 c21 29 49 61 61 72 116
102 101 196 -35 229 -33 8 -54 15 -47 15 25 2 10 18 -53 59 l-65 41 -15 -28z"/>
<path d="M4897 1396 l-37 -33 20 -48 c26 -61 27 -153 1 -203 -25 -49 -87 -107
-133 -127 -43 -17 -124 -20 -165 -4 -15 5 -45 22 -65 36 l-37 25 -40 -33 c-22
-19 -41 -39 -41 -44 0 -18 159 -203 180 -210 38 -12 98 51 92 96 -2 9 4 22 13
29 13 11 19 10 38 -8 l23 -21 75 67 c42 37 97 85 124 107 44 37 47 42 36 63
-17 32 2 55 40 47 21 -5 35 1 63 25 20 18 36 40 36 50 0 27 -159 221 -180 220
-3 -1 -22 -16 -43 -34z"/>
<path d="M3637 1396 c-43 -16 -73 -41 -119 -99 l-31 -39 36 -36 c20 -20 38
-34 40 -32 1 3 15 24 30 48 31 47 71 72 88 55 8 -8 0 -26 -25 -64 -44 -66 -47
-106 -10 -142 32 -32 81 -43 128 -27 38 12 86 61 86 87 0 11 4 13 13 6 8 -7
29 2 70 33 l58 43 -38 20 c-21 10 -65 40 -98 66 -106 83 -165 104 -228 81z
m153 -206 c0 -17 -33 -34 -44 -22 -8 7 -7 47 1 68 6 15 8 15 25 -6 10 -12 18
-30 18 -40z"/>
<path d="M2385 1260 c-13 -22 -70 -42 -115 -42 -41 1 -49 -3 -59 -24 -16 -35
-14 -44 8 -44 35 0 33 -19 -8 -94 -24 -42 -41 -87 -41 -105 0 -39 38 -77 89
-90 92 -23 87 -24 120 18 35 44 39 56 15 47 -26 -10 -54 3 -54 26 0 22 49 138
58 138 3 0 20 -5 39 -12 29 -11 35 -10 48 8 22 29 18 42 -15 49 -42 9 -44 19
-15 66 15 22 25 42 23 43 -5 5 -71 26 -79 26 -4 0 -11 -5 -14 -10z"/>
<path d="M3431 1254 c-12 -9 -31 -29 -40 -45 -15 -25 -20 -27 -30 -15 -10 12
-23 9 -85 -19 -58 -27 -162 -54 -208 -55 -5 0 -8 -7 -8 -15 0 -12 -4 -13 -19
-5 -28 14 -87 12 -120 -5 -78 -40 -80 -178 -3 -258 56 -59 113 -72 169 -37 38
23 52 12 20 -18 -32 -29 -99 -45 -142 -33 -44 12 -45 2 -6 -60 l29 -46 82 13
c108 17 186 55 208 100 15 32 15 39 -6 122 -24 97 -45 222 -39 229 10 10 91
-97 123 -163 l36 -72 71 34 c39 19 78 34 85 34 8 0 -10 26 -39 57 -66 74 -84
111 -62 136 9 9 29 17 45 17 15 0 28 5 28 10 0 16 -49 110 -58 110 -4 0 -18
-7 -31 -16z m-355 -245 c9 -18 17 -53 18 -78 1 -39 -2 -46 -20 -49 -26 -4 -44
33 -51 106 -5 48 -4 52 15 52 14 0 27 -11 38 -31z"/>
<path d="M2564 1095 c-64 -32 -96 -85 -96 -157 0 -56 19 -89 70 -124 38 -26
149 -47 198 -38 30 6 39 13 55 51 10 25 19 46 19 48 0 2 -27 1 -60 -2 -35 -4
-71 -1 -87 6 -28 11 -59 48 -50 58 3 2 50 -2 106 -9 68 -10 104 -11 111 -4 5
5 10 27 10 48 0 71 -96 147 -186 148 -23 0 -61 -10 -90 -25z m120 -81 c23 -23
20 -34 -11 -34 -50 0 -64 27 -23 43 8 3 16 6 17 6 1 1 9 -6 17 -15z"/>
<path d="M1576 991 c-3 -5 19 -32 50 -60 176 -161 470 -314 733 -381 289 -74
680 -68 965 15 229 66 475 196 656 345 99 82 100 90 11 90 -55 0 -61 -2 -162
-75 -192 -138 -433 -243 -684 -296 -97 -21 -137 -24 -330 -24 -190 0 -235 3
-329 23 -278 58 -525 171 -745 339 -38 29 -52 33 -102 33 -32 0 -60 -4 -63 -9z"/>
</g>
</svg>
